# xmcd
# 
# Track frame offsets:
#     182
#     36707
#     55230
#     71560
#     88477
#     109012
#     135875
#     157462
#     179332
#     199222
#     218095
#     238827
#     261592
#     285790
#     305962
# 
# Disc length: 4351
# 
# Revision: 5
# Processed by: cddbd v1.5.2PL0 Copyright (c) Steve Scherf et al.
# Submitted via: fre:ac v1.0.31
# 
DISCID=f110fd0f
DTITLE=Stevie Nicks - Enchanted Disc 2
DYEAR=0
DGENRE=Rock/Pop
TTITLE0=Edge Of Seventeen
TTITLE1=Street Angel
TTITLE2=Rock A Little (Go Ahead Lily)
TTITLE3=I Sing For The Things
TTITLE4=Rooms On Fire
TTITLE5=I Can't Wait
TTITLE6=Two Kinds Of Love
TTITLE7=The Highwayman
TTITLE8=Rose Garden
TTITLE9=Talk To Me
TTITLE10=Destiny
TTITLE11=Ooh My Love
TTITLE12=Desert Angel
TTITLE13=Whole Lotta Trouble
TTITLE14=Has Anyone Ever Written Anything For You
EXTD=
EXTT0=
EXTT1=
EXTT2=
EXTT3=
EXTT4=
EXTT5=
EXTT6=
EXTT7=
EXTT8=
EXTT9=
EXTT10=
EXTT11=
EXTT12=
EXTT13=
EXTT14=
PLAYORDER=
